<?xml version="1.0" encoding="UTF-8"?><svg id="_レイヤー_1" xmlns="http://www.w3.org/2000/svg" viewBox="0 0 150 150"><defs><style>.cls-1{fill:#29398b;}</style></defs><path class="cls-1" d="m135.63,130.45c-5.05-19.92-29.15-26.56-29.15-26.56,0,0,3.5-4.2,11.66-9.09-3.84-6.63-10.84-10.87-13.19-12.16,3.24-1.84,5.5-9.16,7.41-12.66,2.09-3.83-1.68-5.75-3.77-5.36,0,0,0-.21,0-.58,15.55-4.31,25.48-10.14,24.87-15.66-.63-5.65-12.16-9.57-28.97-10.82-.28-.43-.58-.85-.89-1.28-1.59-8.51-3.34-17.89-3.87-20.53-1.27-6.33-10.38-9.88-17.15-5.31-3.55,2.4-6.72,2.57-8.41,2.57s-3.55.34-8.41-2.57c-7.04-4.21-15.88-1.03-17.15,5.31-.63,3.11-2.95,15.58-4.69,24.96-.42.87-.78,1.72-1.07,2.51-16.55,4.36-27.24,10.42-26.61,16.13.53,4.74,8.74,8.27,21.31,10.02.08.2.17.4.29.61,1.89,3.47,4.12,10.68,7.32,12.61-2.25,1.23-9.4,5.5-13.29,12.22,8.16,4.89,11.66,9.09,11.66,9.09,0,0-24.1,6.64-29.15,26.56-1.55,8.39,41.59,11.18,60.63,11.18s62.19-2.79,60.63-11.18Zm-45.81-52.58c-10.98,1.86-10.66-6.23-14.72-5.82-4.07-.42-3.75,7.68-14.73,5.82-5.27-.89-8.78-4.23-11.01-7.46,8.22.38,17.49.16,27.25-.75,9.79-.92,18.94-2.43,26.92-4.33-1.4,3.52-5.33,11.12-13.71,12.53Z"/></svg>