<?xml version="1.0" encoding="UTF-8"?><svg id="_レイヤー_1" xmlns="http://www.w3.org/2000/svg" viewBox="0 0 150 150"><defs><style>.cls-1{fill:#29398b;}</style></defs><path class="cls-1" d="m136.73,112.45L86.09,24.75c-2.28-3.95-6.53-6.41-11.1-6.41s-8.81,2.45-11.09,6.41L13.27,112.45c-2.28,3.95-2.28,8.86,0,12.81,2.28,3.95,6.53,6.4,11.09,6.4h101.27c4.56,0,8.81-2.45,11.09-6.4,2.28-3.95,2.28-8.86,0-12.81Zm-61.73,4.79c-4.38,0-7.93-3.55-7.93-7.93s3.55-7.93,7.93-7.93,7.93,3.55,7.93,7.93-3.55,7.93-7.93,7.93Zm4.89-25.38c0,2.7-2.19,4.88-4.89,4.88s-4.89-2.19-4.89-4.88l-3.05-35.86c0-4.38,3.55-7.93,7.93-7.93s7.93,3.55,7.93,7.93l-3.04,35.86Z"/></svg>