<?xml version="1.0" encoding="UTF-8"?><svg id="_レイヤー_1" xmlns="http://www.w3.org/2000/svg" viewBox="0 0 150 150"><defs><style>.cls-1{fill:#29398b;}</style></defs><path class="cls-1" d="m140.61,83.3l-12.71,11.25-35.91,31.78c-2.27,1.99-5.14,3.06-8.11,3.06-.86,0-1.73-.08-2.59-.27l-20.52-4.54-24.79-5.48-17.38-3.84-2.49-.56c-.78-.27-1.49-.62-2.1-1.07-.99-.72-1.77-1.65-2.31-2.72-.55-1.07-.84-2.26-.84-3.47,0-.74.12-1.52.35-2.28.27-.82.66-1.56,1.13-2.22.7-.99,1.65-1.77,2.72-2.31,1.05-.56,2.24-.84,3.45-.84h.19l13.51,2.96,17.32,3.78,30.08,6.58c1.46.33,2.94.47,4.42.47.85,0,1.67-.04,2.49-.14,4.15-.49,8.1-2.22,11.33-5.06l1.03-.9,35.71-31.61,11.89-10.54c1.54-1.36,1.87-3.56.92-5.28-.14-.29-.33-.57-.55-.82-1.56-1.79-4.3-1.95-6.09-.37l-12.71,11.25-35.91,31.78c-2.27,2-5.15,3.07-8.11,3.07-.86,0-1.73-.08-2.59-.27l-20.52-4.55-24.79-5.47-17.38-3.85h-.03v-.06l-.12-.02-2.49-.55c-.12-.04-.23-.1-.35-.15-.3-.13-.61-.24-.89-.41-.24-.1-.49-.27-.72-.43-.99-.72-1.77-1.65-2.31-2.72-.56-1.07-.85-2.26-.85-3.48,0-.74.12-1.52.35-2.28.27-.82.66-1.56,1.13-2.22.7-.99,1.65-1.77,2.72-2.3,1.05-.56,2.24-.85,3.46-.85.2,0,.41.02.62.02l9.5,2.06,8.41,1.81,41.56,8.99c5.14,1.13,10.51-.27,14.46-3.77l25.55-22.5,15.29-13.46,10.8-9.52c2.35-2.08,3.33-5.29,2.53-8.31-.78-3.04-3.21-5.37-6.27-6.03l-3.25-.7-23.69-5.12-30.01-6.48c-5.14-1.13-10.51.27-14.46,3.77L29.58,51.34l-12.06,10.59-10.49,9.22c-.43.49-.8.98-1.13,1.52-.19.23-.35.43-.52.68-1.03,1.4-1.85,3-2.4,4.75-.52,1.62-.77,3.29-.77,4.91,0,3.52,1.13,6.87,3.12,9.63.63.87,1.37,1.66,2.16,2.41l-.04.04-.58.49c-.43.49-.8.98-1.13,1.52-.18.22-.35.43-.51.68-1.03,1.4-1.85,3-2.41,4.75-.51,1.62-.76,3.29-.76,4.91,0,3.51,1.13,6.87,3.12,9.62,1.01,1.4,2.22,2.63,3.65,3.66,1.4,1.03,3,1.85,4.74,2.39l.19.06,18.29,4.01,17.32,3.78,30.08,6.58c1.46.33,2.94.47,4.42.47,5.04,0,9.95-1.81,13.83-5.2l1.03-.9,35.71-31.62,11.89-10.53c1.79-1.58,1.95-4.32.37-6.11-1.56-1.79-4.29-1.95-6.09-.37Z"/></svg>