<?xml version="1.0" encoding="UTF-8"?><svg id="_レイヤー_1" xmlns="http://www.w3.org/2000/svg" viewBox="0 0 150 150"><defs><style>.cls-1{fill:#29398b;}</style></defs><path class="cls-1" d="m78.28,80.4c1.06-.87,2.07-2.18,2.93-3.84.29-.55.55-1.16.8-1.79h-6.04v6.59c.3-.02.6-.04.9-.07.47-.22.94-.51,1.41-.89Z"/><path class="cls-1" d="m65.99,62.35h8.04v-8.55h-6.72c-.77,2.51-1.24,5.43-1.32,8.55Z"/><path class="cls-1" d="m65.91,74.77h-4.88c.37.46.78.9,1.2,1.32,1.88,1.88,4.17,3.35,6.73,4.25-.69-.84-1.32-1.81-1.88-2.9-.43-.83-.81-1.72-1.16-2.68Z"/><path class="cls-1" d="m71.72,80.4c.47.38.94.67,1.41.89.3.03.6.05.91.07v-6.59h-6.06c1,2.51,2.32,4.47,3.74,5.63Z"/><path class="cls-1" d="m67.3,72.83h6.73v-8.55h-8.05c.08,3.12.55,6.04,1.32,8.55Z"/><path class="cls-1" d="m84.01,64.28h-8.04v8.55h6.72c.76-2.51,1.23-5.43,1.32-8.55Z"/><path class="cls-1" d="m81.05,80.34c2.56-.91,4.85-2.37,6.73-4.25.42-.42.82-.86,1.2-1.32h-4.89c-.8,2.19-1.82,4.09-3.04,5.57Z"/><path class="cls-1" d="m82.7,53.8h-6.73v8.55h8.05c-.08-3.12-.55-6.04-1.32-8.55Z"/><path class="cls-1" d="m85.94,62.35h7.1c-.16-3.13-1.13-6.04-2.69-8.55h-5.64c.72,2.57,1.15,5.47,1.22,8.55Z"/><path class="cls-1" d="m84.09,51.86h4.89c-.38-.46-.78-.9-1.2-1.32-1.88-1.88-4.17-3.34-6.73-4.25.69.84,1.32,1.81,1.88,2.9.43.83.81,1.73,1.16,2.68Z"/><path class="cls-1" d="m78.28,46.23c-.47-.38-.94-.67-1.41-.88-.3-.03-.6-.05-.9-.07v6.58h6.05c-1-2.51-2.32-4.48-3.74-5.63Z"/><path class="cls-1" d="m84.71,72.83h5.64c1.56-2.51,2.52-5.42,2.69-8.55h-7.09c-.08,3.08-.51,5.97-1.24,8.55Z"/><polygon class="cls-1" points="68.04 101.69 66.22 107.32 69.94 107.32 68.11 101.69 68.04 101.69"/><path class="cls-1" d="m106.42,16.92h-62.84c-7.73,0-13.99,6.26-13.99,13.99v88.18c0,7.73,6.26,13.99,13.99,13.99h62.84c7.73,0,13.99-6.26,13.99-13.99V30.91c0-7.73-6.26-13.99-13.99-13.99Zm-31.42,23.76c12.5,0,22.64,10.13,22.64,22.64s-10.14,22.64-22.64,22.64c-12.51,0-22.64-10.13-22.64-22.64,0-12.51,10.14-22.64,22.64-22.64Zm-20.87,66.91h-2.87c-.1,0-.14.05-.14.14v5.38c0,.14-.09.24-.24.24h-3.01c-.14,0-.24-.09-.24-.24v-15.63c0-.14.1-.24.24-.24h6.25c3.51,0,5.61,2.11,5.61,5.18s-2.13,5.16-5.61,5.16Zm21.06,5.75h-3.08c-.17,0-.26-.07-.31-.24l-.93-2.82h-5.63l-.9,2.82c-.05.17-.14.24-.3.24h-3.1c-.17,0-.21-.09-.17-.24l5.54-15.63c.05-.14.14-.24.31-.24h2.98c.17,0,.26.09.31.24l5.45,15.63c.05.14,0,.24-.17.24Zm7.47.26c-2.51,0-4.95-1-6.2-2.2-.09-.09-.14-.26-.02-.4l1.8-2.06c.09-.12.24-.12.35-.02,1.06.85,2.51,1.66,4.22,1.66s2.63-.78,2.63-1.92c0-.95-.57-1.54-2.49-1.8l-.85-.12c-3.27-.45-5.09-1.99-5.09-4.83s2.23-4.92,5.71-4.92c2.13,0,4.12.64,5.47,1.68.14.09.17.19.05.35l-1.44,2.15c-.1.12-.22.14-.33.07-1.23-.8-2.42-1.23-3.74-1.23-1.42,0-2.15.73-2.15,1.75,0,.92.66,1.52,2.51,1.78l.86.12c3.31.45,5.07,1.97,5.07,4.88,0,2.91-2.16,5.07-6.32,5.07Zm14.1,0c-2.51,0-4.95-1-6.2-2.2-.1-.09-.14-.26-.02-.4l1.8-2.06c.1-.12.24-.12.35-.02,1.07.85,2.51,1.66,4.22,1.66s2.63-.78,2.63-1.92c0-.95-.57-1.54-2.49-1.8l-.85-.12c-3.27-.45-5.09-1.99-5.09-4.83s2.23-4.92,5.71-4.92c2.13,0,4.12.64,5.47,1.68.14.09.17.19.05.35l-1.45,2.15c-.09.12-.21.14-.33.07-1.23-.8-2.41-1.23-3.74-1.23-1.42,0-2.16.73-2.16,1.75,0,.92.66,1.52,2.51,1.78l.85.12c3.32.45,5.07,1.97,5.07,4.88,0,2.91-2.16,5.07-6.32,5.07Z"/><path class="cls-1" d="m67.99,51.86h6.05v-6.58c-.3.02-.6.04-.91.07-.47.22-.94.51-1.41.88-1.06.87-2.07,2.18-2.93,3.84-.29.56-.55,1.16-.8,1.79Z"/><path class="cls-1" d="m53.92,100.24h-2.65c-.1,0-.14.05-.14.14v4.05c0,.09.05.14.14.14h2.65c1.47,0,2.34-.85,2.34-2.16s-.88-2.18-2.34-2.18Z"/><path class="cls-1" d="m65.29,53.8h-5.64c-1.56,2.5-2.52,5.42-2.69,8.55h7.09c.08-3.08.51-5.97,1.24-8.55Z"/><path class="cls-1" d="m68.96,46.29c-2.55.91-4.85,2.37-6.73,4.25-.42.42-.82.86-1.2,1.32h4.88c.8-2.19,1.82-4.09,3.04-5.57Z"/><path class="cls-1" d="m65.29,72.83c-.73-2.58-1.15-5.47-1.23-8.55h-7.1c.17,3.13,1.13,6.04,2.69,8.55h5.64Z"/></svg>