<?xml version="1.0" encoding="UTF-8"?><svg id="_レイヤー_1" xmlns="http://www.w3.org/2000/svg" viewBox="0 0 150 150"><defs><style>.cls-1{fill:#29398b;}</style></defs><path class="cls-1" d="m95.1,79.46l3.77,6.66c2.28-2.01,4.31-4.32,6.02-6.85,3.89-5.75,6.17-12.71,6.17-20.16,0-4.96-1.01-9.71-2.84-14.03-2.74-6.48-7.32-11.98-13.07-15.87-5.75-3.89-12.71-6.17-20.16-6.17-4.96,0-9.71,1.01-14.03,2.84-6.47,2.75-11.98,7.32-15.87,13.07-3.89,5.75-6.17,12.7-6.17,20.15,0,4.97,1.01,9.72,2.84,14.03,2.12,5.01,5.34,9.43,9.35,12.98l3.77-6.67c-1.35-1.33-2.56-2.79-3.62-4.36-3.09-4.58-4.89-10.06-4.89-15.99,0-3.95.8-7.7,2.25-11.12,2.17-5.13,5.81-9.51,10.38-12.6,4.57-3.09,10.06-4.89,15.98-4.89,3.95,0,7.7.8,11.12,2.25,5.13,2.17,9.51,5.81,12.6,10.38,3.09,4.58,4.89,10.06,4.89,15.98,0,3.95-.8,7.7-2.25,11.12-1.47,3.47-3.61,6.6-6.27,9.22Z"/><path class="cls-1" d="m125.95,37.6c-4.21-9.93-11.22-18.37-20.05-24.34-8.82-5.97-19.48-9.46-30.91-9.46-7.62,0-14.9,1.55-21.51,4.36-9.93,4.2-18.37,11.22-24.34,20.04-5.97,8.82-9.46,19.48-9.46,30.9,0,7.62,1.55,14.9,4.35,21.51,3.79,8.94,9.85,16.67,17.47,22.48l3.71-6.55c-3.82-3.05-7.17-6.65-9.9-10.7-5.17-7.64-8.18-16.83-8.18-26.74,0-6.6,1.34-12.88,3.76-18.6,3.64-8.58,9.72-15.91,17.36-21.07,7.65-5.17,16.83-8.18,26.74-8.19,6.61,0,12.89,1.34,18.61,3.77,8.58,3.63,15.9,9.71,21.07,17.36,5.17,7.64,8.18,16.83,8.18,26.73,0,6.61-1.34,12.89-3.76,18.61-3.14,7.41-8.1,13.88-14.32,18.83l3.71,6.55c4.79-3.66,8.97-8.08,12.36-13.08,5.97-8.82,9.46-19.48,9.46-30.91,0-7.61-1.55-14.89-4.35-21.51Z"/><path class="cls-1" d="m78.29,71.9c6.07-1.49,10.6-6.92,10.6-13.45,0-7.67-6.22-13.88-13.88-13.88s-13.88,6.22-13.88,13.88c0,6.53,4.52,11.97,10.6,13.45v2.95l-33.72,59.57,5.72,3.24,9.88-17.46,18.11,7.27v18.73h6.58v-18.73l18.11-7.27,9.88,17.46,5.72-3.24-33.72-59.57v-2.95Zm-6.58,48.48l-14.84-5.96,14.84-26.22v32.18Zm21.42-5.96l-14.84,5.96v-32.18l14.84,26.22Z"/></svg>