<?xml version="1.0" encoding="UTF-8"?><svg id="_レイヤー_1" xmlns="http://www.w3.org/2000/svg" viewBox="0 0 150 150"><defs><style>.cls-1{fill:#29398b;}</style></defs><path class="cls-1" d="m108.27,6.12H42.32c-12.76,0-23.14,10.38-23.14,23.14v91.65c0,12.76,10.38,23.14,23.14,23.14h49.37l2.51-2.51,34.69-34.69,2.51-2.51V29.26c0-12.76-10.38-23.14-23.14-23.14Zm14.57,94.66h-22.55c-6.71,0-12.14,5.44-12.14,12.14v22.55h-45.83c-8.05,0-14.57-6.52-14.57-14.57V29.26c0-8.05,6.53-14.57,14.57-14.57h65.95c8.05,0,14.57,6.52,14.57,14.57v71.52h0Z"/><rect class="cls-1" x="42.35" y="40.31" width="8.27" height="7.89"/><rect class="cls-1" x="42.35" y="59.51" width="8.27" height="7.89"/><rect class="cls-1" x="42.35" y="78.71" width="8.27" height="7.89"/><rect class="cls-1" x="42.35" y="97.91" width="8.27" height="7.89"/><rect class="cls-1" x="59.53" y="40.31" width="48.72" height="7.89"/><rect class="cls-1" x="59.53" y="59.51" width="48.72" height="7.89"/><rect class="cls-1" x="59.53" y="78.71" width="48.72" height="7.89"/><rect class="cls-1" x="59.53" y="97.91" width="20.03" height="7.89"/></svg>