<?xml version="1.0" encoding="UTF-8"?><svg id="_レイヤー_1" xmlns="http://www.w3.org/2000/svg" viewBox="0 0 150 150"><defs><style>.cls-1{fill:#29398b;}</style></defs><path class="cls-1" d="m128.7,60.39l-10.46-6.32c-.35-2.82-1.62-5.08-3.75-6l-23.74-14.34-.08.16c-.98-2.09-2.46-3.71-4.43-4.56L50.65,7.85l-.06.15h0c-.94-.79-2.01-1.44-3.17-1.94-8.84-3.81-20.27,3.01-25.53,15.23-5.26,12.2-2.38,25.21,6.46,29.02,1.16.5,2.37.82,3.58.97l-.05.13,40.07,11.12c1.97.85,4.16.82,6.35.1l-.06.15,26.73,7.42c2.14.92,4.67.31,6.97-1.39l11.74,3.26c2.1.91,4.93-.97,6.32-4.2,1.39-3.23.82-6.58-1.28-7.49Zm-81.45-28.16c-3.22,7.48-8.59,11.97-12.9,13.43-1.9.62-3.6.7-4.81.17-3.97-1.71-6.9-11.44-2.26-22.21,4.64-10.77,13.72-15.33,17.7-13.61,1.21.52,2.33,1.8,3.18,3.62,1.9,4.14,2.32,11.12-.9,18.6Z"/><path class="cls-1" d="m86.23,94.1c-.54-.74-.62-1.71-.2-2.53.42-.82,1.25-1.32,2.16-1.32h1.22c1.34,0,2.43-1.09,2.43-2.43v-2.12c0-1.34-1.09-2.43-2.43-2.43h-23.46c-1.34,0-2.43,1.09-2.43,2.43v2.12c0,1.35,1.09,2.43,2.43,2.43h1.23c.91,0,1.75.51,2.16,1.32.42.82.34,1.79-.2,2.53l-28.95,36.43c-.88,1.17-.64,2.83.53,3.71,1.17.88,2.83.64,3.71-.53l29.5-33.4,1.1,42.03c0,1.46,1.19,2.65,2.65,2.65s2.65-1.19,2.65-2.65l1.11-42.03,29.5,33.4c.88,1.17,2.54,1.41,3.71.53,1.17-.88,1.41-2.54.53-3.71l-28.95-36.43Z"/><path class="cls-1" d="m83.54,73.58c0-3.23-2.62-5.85-5.85-5.85s-5.85,2.62-5.85,5.85,2.62,5.86,5.85,5.86,5.85-2.62,5.85-5.86Z"/></svg>