<?xml version="1.0" encoding="UTF-8"?><svg id="_レイヤー_1" xmlns="http://www.w3.org/2000/svg" viewBox="0 0 150 150"><defs><style>.cls-1{fill:#d96666;}</style></defs><path class="cls-1" d="m38.11,98.08c-.71-.57-1.42-1.14-2.11-1.75v.02s-.04-.03-.06-.04l-16.92,36.25-.49,1.3.64,1.02c.46.71,1.21,1.12,2.05,1.12h.4l16.17-5.03,6.4,15.31c.4.9,1.26,1.5,2.25,1.5s1.81-.55,2.21-1.41l13.09-28.03,3.87-8.24s-.01,0-.02,0l.03-.06c-10.31-1.47-19.73-5.73-27.51-11.95Z"/><path class="cls-1" d="m115.43,104.53l-3.8-8.17s0,0-.01.01l-.03-.06c-7.61,6.71-17.04,11.4-27.41,13.3-.73.13-1.45.28-2.19.38v.02s-.04,0-.06.01l16.97,36.36c.4.86,1.26,1.41,2.21,1.41s1.85-.6,2.25-1.5l6.4-15.31,15.87,4.92.38.11h.33c.84,0,1.59-.42,2.05-1.12l.66-1.24-13.61-29.11Z"/><path class="cls-1" d="m122.31,53.21c0-26.81-21.74-48.54-48.55-48.54S25.22,26.4,25.22,53.21s21.73,48.55,48.55,48.55,48.55-21.71,48.55-48.55Zm-48.55,22.49c-12.38,0-22.46-10.08-22.46-22.49s10.08-22.46,22.46-22.46,22.49,10.08,22.49,22.46-10.08,22.49-22.49,22.49Z"/></svg>