<?xml version="1.0" encoding="UTF-8"?><svg id="_レイヤー_1" xmlns="http://www.w3.org/2000/svg" viewBox="0 0 150 150"><defs><style>.cls-1{fill:#29398b;}</style></defs><path class="cls-1" d="m136.94,25.99c-2.19-4.58-5.8-8.38-10.26-11.04-4.46-2.66-9.79-4.19-15.52-4.19-7.62,0-14.56,2.72-19.66,7.22-2.55,2.25-4.64,4.96-6.1,8.01-1.46,3.05-2.28,6.45-2.28,10.01,0,4.54,1.34,8.8,3.63,12.44,1.96,3.11,4.61,5.77,7.74,7.85l-4.71,11.76,3.4-.42c11.75-1.47,22.99-5.87,28.33-8.17,5.07-1.81,9.45-4.91,12.61-8.93,3.17-4.05,5.1-9.08,5.1-14.52,0-3.56-.82-6.96-2.28-10.01Zm-5.77,21.65c-2.64,3.38-6.45,6.1-10.96,7.69l-.06.02-.06.03c-4.62,2.01-13.97,5.65-23.91,7.38l3.37-8.4-1.65-.95c-3.34-1.91-6.07-4.5-7.95-7.48-1.88-2.99-2.92-6.34-2.92-9.92,0-2.81.64-5.48,1.82-7.94,1.77-3.7,4.78-6.93,8.65-9.24,3.87-2.31,8.58-3.68,13.67-3.68,6.79,0,12.9,2.44,17.24,6.28,2.17,1.92,3.9,4.18,5.08,6.64,1.18,2.47,1.82,5.14,1.82,7.94,0,4.28-1.49,8.26-4.13,11.64Z"/><path class="cls-1" d="m100.1,33.21c-1.68,0-3.05,1.53-3.05,3.4s1.36,3.4,3.05,3.4,3.05-1.52,3.05-3.4c0-1.88-1.37-3.4-3.05-3.4Z"/><path class="cls-1" d="m111.85,33.21c-1.68,0-3.05,1.53-3.05,3.4s1.37,3.4,3.05,3.4,3.05-1.52,3.05-3.4c0-1.88-1.36-3.4-3.05-3.4Z"/><path class="cls-1" d="m123.6,33.21c-1.68,0-3.05,1.53-3.05,3.4s1.36,3.4,3.05,3.4,3.05-1.52,3.05-3.4c0-1.88-1.36-3.4-3.05-3.4Z"/><path class="cls-1" d="m66.2,97.85c-3.18,1.06-6.58,1.65-10.11,1.65s-6.93-.59-10.11-1.65c-23.11,3.79-35.2,20.78-35.2,41.39h90.63c0-20.61-12.09-37.6-35.2-41.39Z"/><path class="cls-1" d="m56.09,92.15c13.7,0,24.8-11.1,24.8-24.8v-7.04c0-13.7-11.1-24.8-24.8-24.8s-24.8,11.1-24.8,24.8v7.04c0,13.7,11.1,24.8,24.8,24.8Z"/></svg>